<svg width="274" height="274" viewBox="0 0 274 274" fill="none" xmlns="http://www.w3.org/2000/svg">
<g clip-path="url(#clip0_1112_280)">
<rect width="274" height="274" rx="137" fill="black"/>
<path d="M136.066 -46.7178C36.5986 -46.7178 -44 34.6834 -44 135.141C-44 235.598 36.5986 317 136.066 317C235.533 317 316.131 235.598 316.131 135.141C316.131 34.6834 235.475 -46.7178 136.066 -46.7178ZM224.177 111.909C221.498 130.142 211.481 138.964 198.204 142.081C216.431 151.668 225.691 166.372 216.897 191.839C205.949 223.482 179.859 226.188 145.209 219.542L136.823 253.596L116.498 248.479L124.826 214.895C119.585 213.601 114.169 212.19 108.637 210.661L100.309 244.421L79.9844 239.304L88.3704 205.191C83.6533 203.956 78.8197 202.662 73.8697 201.426L47.4305 194.78L57.5053 171.254C57.5053 171.254 72.472 175.253 72.2973 174.959C78.0626 176.371 80.625 172.607 81.615 170.078L94.8928 116.261L97.0476 116.79C96.2323 116.437 95.4752 116.261 94.9511 116.085L104.444 77.6778C104.676 73.3254 103.221 67.7968 94.9511 65.7382C95.2423 65.5029 80.2174 62.0328 80.2174 62.0328L85.6333 40.0945L113.645 47.1524V47.27C117.838 48.3287 122.206 49.3286 126.573 50.3284L134.901 16.6269L155.225 21.7439L147.072 54.7984C152.546 56.0336 158.021 57.3275 163.32 58.6803L171.415 25.861L191.739 30.978L183.412 64.6795C209.094 73.6195 227.846 86.9707 224.177 111.85V111.909Z" fill="#FFD93A"/>
<path d="M126.34 140.729L115.159 185.899C128.961 189.369 171.415 203.132 177.705 177.665C184.227 151.08 140.084 144.199 126.282 140.729H126.34Z" fill="#FFD93A"/>
<path d="M141.539 79.0889L131.406 120.084C142.879 122.966 178.228 134.729 183.993 111.555C189.992 87.3819 153.012 81.9708 141.539 79.0889Z" fill="#FFD93A"/>
</g>
<defs>
<clipPath id="clip0_1112_280">
<rect width="274" height="274" rx="137" fill="white"/>
</clipPath>
</defs>
</svg>
